<?xml version="1.0" standalone="no"?>
<!DOCTYPE svg PUBLIC "-//W3C//DTD SVG 20010904//EN"
 "http://www.w3.org/TR/2001/REC-SVG-20010904/DTD/svg10.dtd">
<svg version="1.0" xmlns="http://www.w3.org/2000/svg"
 width="111.000000pt" height="111.000000pt" viewBox="0 0 111.000000 111.000000"
 preserveAspectRatio="xMidYMid meet">
<metadata>
Created by potrace 1.11, written by Peter Selinger 2001-2013
</metadata>
<g transform="translate(0.000000,111.000000) scale(0.100000,-0.100000)"
fill="#000000" stroke="none">
<path d="M430 981 c-157 -56 -282 -191 -300 -325 -5 -40 -5 -41 -49 -41 -49
-1 -83 -30 -74 -65 8 -31 31 -43 78 -42 44 0 45 0 45 -33 0 -41 59 -159 103
-206 74 -79 206 -142 308 -148 94 -5 231 52 311 131 62 60 119 163 122 221 1
25 6 32 24 33 12 1 33 2 46 3 30 1 56 26 56 52 0 30 -34 58 -67 54 -47 -6 -58
2 -59 43 -3 78 -82 197 -169 258 -115 78 -265 105 -375 65z"/>
</g>
</svg>
