<svg width="110" height="110" viewBox="0 0 110 110" fill="none" xmlns="http://www.w3.org/2000/svg">
<circle cx="55" cy="55" r="55" fill="#F9E2FF"/>
<path d="M27.75 52H32.3497L40.7738 58.0175C40.9778 58.1631 41.2208 58.244 41.4714 58.2498C41.722 58.2555 41.9685 58.1857 42.179 58.0496C42.3894 57.9134 42.554 57.7172 42.6515 57.4863C42.749 57.2553 42.7748 57.0005 42.7256 56.7547L41.7747 52H50.25C51.907 51.9981 53.4956 51.339 54.6673 50.1673C55.839 48.9956 56.4981 47.407 56.5 45.75V30.75C56.4981 29.093 55.839 27.5044 54.6673 26.3327C53.4956 25.161 51.907 24.5019 50.25 24.5H27.75C26.093 24.5019 24.5044 25.161 23.3327 26.3327C22.161 27.5044 21.5019 29.093 21.5 30.75V45.75C21.5019 47.407 22.161 48.9956 23.3327 50.1673C24.5044 51.339 26.093 51.9981 27.75 52ZM24 30.75C24.0011 29.7558 24.3966 28.8026 25.0996 28.0996C25.8026 27.3966 26.7558 27.0011 27.75 27H50.25C51.2442 27.0011 52.1974 27.3966 52.9004 28.0996C53.6034 28.8026 53.9989 29.7558 54 30.75V45.75C53.9989 46.7442 53.6034 47.6974 52.9004 48.4004C52.1974 49.1034 51.2442 49.4989 50.25 49.5H40.25C40.0651 49.5 39.8824 49.5411 39.7152 49.6202C39.5481 49.6993 39.4006 49.8146 39.2833 49.9576C39.1661 50.1006 39.082 50.2679 39.0373 50.4474C38.9925 50.6268 38.9881 50.814 39.0244 50.9953L39.6544 54.1453L33.4763 49.7325C33.2643 49.5813 33.0104 49.5 32.75 49.5H27.75C26.7558 49.4989 25.8026 49.1034 25.0996 48.4004C24.3966 47.6974 24.0011 46.7442 24 45.75V30.75Z" fill="#480CE7"/>
<path d="M88.7256 69.6626H84.1259L75.7018 75.6801C75.4978 75.8257 75.2548 75.9066 75.0042 75.9124C74.7536 75.9181 74.5071 75.8483 74.2966 75.7122C74.0862 75.576 73.9215 75.3798 73.8241 75.1489C73.7266 74.9179 73.7008 74.6631 73.75 74.4173L74.7009 69.6626H66.2256C64.5686 69.6607 62.98 69.0016 61.8083 67.8299C60.6366 66.6582 59.9775 65.0696 59.9756 63.4126V48.4126C59.9775 46.7556 60.6366 45.167 61.8083 43.9953C62.98 42.8236 64.5686 42.1645 66.2256 42.1626H88.7256C90.3826 42.1645 91.9712 42.8236 93.1429 43.9953C94.3145 45.167 94.9736 46.7556 94.9756 48.4126V63.4126C94.9736 65.0696 94.3145 66.6582 93.1429 67.8299C91.9712 69.0016 90.3826 69.6607 88.7256 69.6626ZM92.4756 48.4126C92.4745 47.4184 92.079 46.4652 91.376 45.7622C90.673 45.0592 89.7198 44.6637 88.7256 44.6626H66.2256C65.2314 44.6637 64.2782 45.0592 63.5752 45.7622C62.8721 46.4652 62.4767 47.4184 62.4756 48.4126V63.4126C62.4767 64.4068 62.8721 65.36 63.5752 66.063C64.2782 66.766 65.2314 67.1615 66.2256 67.1626H76.2256C76.4105 67.1626 76.5932 67.2037 76.7603 67.2828C76.9275 67.3619 77.075 67.4772 77.1923 67.6202C77.3095 67.7632 77.3936 67.9305 77.4383 68.11C77.4831 68.2894 77.4875 68.4766 77.4512 68.6579L76.8212 71.8079L82.9993 67.3951C83.2113 67.2438 83.4652 67.1626 83.7256 67.1626H88.7256C89.7198 67.1615 90.673 66.766 91.376 66.063C92.079 65.36 92.4745 64.4068 92.4756 63.4126V48.4126Z" fill="#480CE7"/>
<path d="M30.25 36.9999V44.4999C30.25 44.8315 30.3817 45.1494 30.6161 45.3838C30.8505 45.6182 31.1685 45.7499 31.5 45.7499H41.5C41.8315 45.7499 42.1494 45.6182 42.3839 45.3838C42.6183 45.1494 42.75 44.8315 42.75 44.4999V44.0226L45.9409 45.6181C46.1315 45.7134 46.3433 45.7584 46.5562 45.7488C46.769 45.7392 46.9759 45.6754 47.1572 45.5634C47.3384 45.4513 47.488 45.2948 47.5918 45.1087C47.6956 44.9226 47.75 44.713 47.75 44.4999V36.9999C47.75 36.7869 47.6956 36.5773 47.5918 36.3912C47.488 36.2051 47.3384 36.0486 47.1572 35.9365C46.9759 35.8245 46.769 35.7607 46.5562 35.7511C46.3433 35.7415 46.1315 35.7865 45.9409 35.8818L42.75 37.4773V36.9999C42.75 36.9792 42.7392 36.9618 42.7381 36.9413C43.1443 36.5327 43.4657 36.0477 43.6838 35.5143C43.9018 34.981 44.0122 34.4097 44.0085 33.8335C44.0049 33.2573 43.8873 32.6875 43.6626 32.1569C43.4378 31.6264 43.1103 31.1455 42.6989 30.742C42.2876 30.3385 41.8004 30.0204 41.2656 29.8059C40.7308 29.5915 40.1588 29.4849 39.5827 29.4924C39.0065 29.4999 38.4375 29.6213 37.9084 29.8497C37.3794 30.078 36.9007 30.4087 36.5 30.8228C36.0993 30.4087 35.6206 30.078 35.0915 29.8497C34.5625 29.6213 33.9935 29.4999 33.4173 29.4924C32.8411 29.4849 32.2692 29.5915 31.7343 29.8059C31.1995 30.0204 30.7124 30.3385 30.301 30.742C29.8897 31.1455 29.5622 31.6264 29.3374 32.1569C29.1126 32.6875 28.9951 33.2573 28.9914 33.8335C28.9878 34.4097 29.0982 34.981 29.3162 35.5143C29.5342 36.0477 29.8556 36.5327 30.2619 36.9413C30.2608 36.9618 30.25 36.9792 30.25 36.9999ZM40.25 43.2499H32.75V38.2499H40.25V43.2499ZM45.25 39.0226V42.4773L42.75 41.2273V40.2726L45.25 39.0226ZM39.625 31.9999C39.9958 31.9999 40.3583 32.1099 40.6667 32.3159C40.975 32.522 41.2153 32.8148 41.3573 33.1574C41.4992 33.5 41.5363 33.877 41.464 34.2407C41.3916 34.6044 41.213 34.9385 40.9508 35.2008C40.6886 35.463 40.3545 35.6416 39.9908 35.7139C39.6271 35.7863 39.2501 35.7491 38.9075 35.6072C38.5648 35.4653 38.272 35.225 38.066 34.9166C37.8599 34.6083 37.75 34.2458 37.75 33.8749C37.7505 33.3778 37.9482 32.9012 38.2998 32.5497C38.6513 32.1982 39.1279 32.0005 39.625 31.9999ZM33.375 31.9999C33.7458 31.9999 34.1083 32.1099 34.4167 32.3159C34.725 32.522 34.9653 32.8148 35.1073 33.1574C35.2492 33.5 35.2863 33.877 35.214 34.2407C35.1416 34.6044 34.963 34.9385 34.7008 35.2008C34.4386 35.463 34.1045 35.6416 33.7408 35.7139C33.3771 35.7863 33.0001 35.7491 32.6574 35.6072C32.3148 35.4653 32.022 35.225 31.816 34.9166C31.6099 34.6083 31.5 34.2458 31.5 33.8749C31.5005 33.3778 31.6982 32.9012 32.0497 32.5497C32.4013 32.1982 32.8779 32.0005 33.375 31.9999Z" fill="#480CE7"/>
<path d="M77.3333 56.0651C78.3222 56.0651 79.2889 55.7718 80.1112 55.2224C80.9334 54.673 81.5743 53.8921 81.9527 52.9785C82.3312 52.0649 82.4302 51.0595 82.2372 50.0896C82.0443 49.1197 81.5681 48.2288 80.8689 47.5295C80.1696 46.8303 79.2787 46.3541 78.3088 46.1611C77.3389 45.9682 76.3335 46.0672 75.4199 46.4457C74.5063 46.8241 73.7254 47.465 73.176 48.2872C72.6266 49.1095 72.3333 50.0762 72.3333 51.0651C72.3347 52.3907 72.862 53.6617 73.7993 54.599C74.7367 55.5364 76.0077 56.0637 77.3333 56.0651ZM77.3333 48.5651C77.8278 48.5651 78.3111 48.7117 78.7222 48.9864C79.1334 49.2611 79.4538 49.6515 79.643 50.1084C79.8322 50.5652 79.8817 51.0678 79.7853 51.5528C79.6888 52.0377 79.4507 52.4832 79.1011 52.8328C78.7515 53.1825 78.306 53.4206 77.821 53.517C77.3361 53.6135 76.8334 53.564 76.3766 53.3748C75.9198 53.1855 75.5293 52.8651 75.2546 52.454C74.9799 52.0429 74.8333 51.5595 74.8333 51.0651C74.8341 50.4023 75.0977 49.7668 75.5664 49.2982C76.0351 48.8295 76.6705 48.5659 77.3333 48.5651Z" fill="#480CE7"/>
<path d="M61.2764 65.2521L70.7073 58.0977L80.7886 65.2521L87.6179 59.3985L94.122 65.2521" stroke="#480CE7" stroke-width="2.60163" stroke-linejoin="round"/>
<path d="M27.75 84.5H47.75C49.407 84.4981 50.9956 83.8389 52.1673 82.6673C53.339 81.4956 53.9981 79.907 54 78.25V70.75C53.9981 69.093 53.339 67.5044 52.1673 66.3327C50.9956 65.161 49.407 64.5019 47.75 64.5H46.8516L47.7122 61.0533C47.7715 60.8157 47.7597 60.5659 47.6783 60.335C47.5969 60.104 47.4495 59.9021 47.2543 59.7542C47.0592 59.6063 46.8249 59.519 46.5805 59.5031C46.3362 59.4872 46.0925 59.5435 45.8798 59.6648L37.418 64.5H27.75C26.093 64.5019 24.5044 65.161 23.3327 66.3327C22.161 67.5044 21.5019 69.093 21.5 70.75V78.25C21.5019 79.907 22.161 81.4956 23.3327 82.6673C24.5044 83.8389 26.093 84.4981 27.75 84.5ZM24 70.75C24.0011 69.7558 24.3966 68.8026 25.0996 68.0996C25.8026 67.3966 26.7558 67.0011 27.75 67H37.75C37.9675 66.9999 38.1813 66.9431 38.3702 66.8352L44.5773 63.2883L44.0378 65.4466C43.9917 65.6308 43.9882 65.8232 44.0276 66.009C44.0669 66.1948 44.1481 66.3692 44.265 66.519C44.3818 66.6687 44.5313 66.7899 44.7019 66.8732C44.8726 66.9566 45.0601 66.9999 45.25 67H47.75C48.7442 67.0011 49.6974 67.3966 50.4004 68.0996C51.1034 68.8026 51.4989 69.7558 51.5 70.75V78.25C51.4989 79.2442 51.1034 80.1974 50.4004 80.9004C49.6974 81.6034 48.7442 81.9989 47.75 82H27.75C26.7558 81.9989 25.8026 81.6034 25.0996 80.9004C24.3966 80.1974 24.0011 79.2442 24 78.25V70.75Z" fill="#480CE7"/>
<path d="M40.25 70.75H26.5V73.25H40.25V70.75Z" fill="#480CE7"/>
<path d="M49 70.75H42.75V73.25H49V70.75Z" fill="#480CE7"/>
<path d="M49 75.75H26.5V78.25H49V75.75Z" fill="#480CE7"/>
</svg>
