<svg width="80" height="80" viewBox="0 0 80 80" fill="none" xmlns="http://www.w3.org/2000/svg">
<path fill-rule="evenodd" clip-rule="evenodd" d="M40 80C62.0914 80 80 62.0914 80 40C80 17.9086 62.0914 0 40 0C17.9086 0 0 17.9086 0 40C0 62.0914 17.9086 80 40 80Z" fill="#D321FF" fill-opacity="0.13"/>
<path d="M13.7271 29.3937C14.1677 29.3937 14.5249 29.0366 14.5249 28.5958V23.6667C14.5249 22.1906 15.7332 20.9896 17.2185 20.9896H43.8C44.2406 20.9896 44.5979 20.6325 44.5979 20.1918C44.5979 19.7511 44.2406 19.3939 43.8 19.3939H17.2185C14.8533 19.3939 12.9292 21.3107 12.9292 23.6667V28.5958C12.9292 29.0366 13.2864 29.3937 13.7271 29.3937Z" fill="#480CE7"/>
<path d="M56.753 59.8185H17.2185C15.7332 59.8185 14.5249 58.6176 14.5249 57.1414V32.3192C14.5249 31.8785 14.1677 31.5213 13.7271 31.5213C13.2864 31.5213 12.9292 31.8785 12.9292 32.3192V57.1414C12.9292 59.4974 14.8533 61.4142 17.2185 61.4142H56.753C57.1936 61.4142 57.5508 61.0571 57.5508 60.6163C57.5508 60.1756 57.1936 59.8185 56.753 59.8185Z" fill="#480CE7"/>
<path d="M63.1065 19.394H47.5208C47.0801 19.394 46.7229 19.7511 46.7229 20.1918C46.7229 20.6325 47.0801 20.9897 47.5208 20.9897H63.1065C64.5917 20.9897 65.8001 22.1906 65.8001 23.6667V57.1414C65.8001 58.6175 64.5918 59.8185 63.1065 59.8185H60.4753C60.0347 59.8185 59.6775 60.1756 59.6775 60.6163C59.6775 61.057 60.0347 61.4142 60.4753 61.4142H63.1065C65.4716 61.4142 67.3958 59.4974 67.3958 57.1414V23.6667C67.3958 21.3107 65.4717 19.394 63.1065 19.394Z" fill="#480CE7"/>
<path d="M25.714 44.8249C25.2734 44.8249 24.9161 45.182 24.9161 45.6227V53.2296C24.9161 54.4679 26.0847 55.4379 27.5766 55.4379C29.0685 55.4379 30.2371 54.4679 30.2371 53.2296V37.5927C32.6079 37.4553 34.4945 35.4915 34.4945 33.0965C34.4945 30.7014 32.6079 28.7378 30.2371 28.6002V27.3258C30.2371 26.0926 29.0685 25.1267 27.5766 25.1267C26.0847 25.1267 24.9161 26.0926 24.9161 27.3258V28.6002C22.5453 28.7376 20.6587 30.7014 20.6587 33.0965C20.6587 35.4915 22.5453 37.4552 24.9161 37.5927V41.8178C24.9161 42.2586 25.2734 42.6157 25.714 42.6157C26.1546 42.6157 26.5118 42.2586 26.5118 41.8178V37.6011H28.6415V53.2296C28.6415 53.5188 28.1861 53.8422 27.5767 53.8422C26.9674 53.8422 26.5119 53.5188 26.5119 53.2296V45.6227C26.5118 45.182 26.1546 44.8249 25.714 44.8249ZM27.5766 26.7224C28.1763 26.7224 28.6414 27.0467 28.6414 27.3258V28.5918H26.5118V27.3258C26.5118 27.0467 26.9769 26.7224 27.5766 26.7224ZM22.2544 33.0965C22.2544 31.4925 23.5677 30.1875 25.1819 30.1875H29.9714C31.5856 30.1875 32.8989 31.4925 32.8989 33.0965C32.8989 34.7005 31.5856 36.0054 29.9714 36.0054C29.5038 35.9754 25.7524 36.022 25.1819 36.0054C23.5676 36.0053 22.2544 34.7005 22.2544 33.0965Z" fill="#480CE7"/>
<path d="M47.2668 47.394C47.2668 44.9955 45.3744 43.0291 42.9985 42.897L43.0101 27.3481C43.0101 26.1096 41.8415 25.1395 40.3497 25.1395C38.8579 25.1395 37.6892 26.1096 37.6892 27.3486L37.699 42.897C35.3232 43.0293 33.4309 44.9956 33.4309 47.394C33.4309 49.7915 35.3216 51.7571 37.6959 51.8908L37.6892 53.2674C37.6892 54.4995 38.8578 55.4646 40.3497 55.4646C41.8415 55.4646 43.0101 54.4995 43.0101 53.2628L43.0022 51.8907C45.3763 51.7568 47.2668 49.7914 47.2668 47.394ZM40.3497 26.7352C40.9591 26.7352 41.4144 27.0587 41.4144 27.3474L41.4028 42.8895H39.2947L39.2849 27.3481C39.2849 27.0587 39.7403 26.7352 40.3497 26.7352ZM40.3497 53.869C39.75 53.869 39.2849 53.5457 39.2849 53.2713L39.2916 51.8987H41.4064L41.4144 53.2675C41.4145 53.5457 40.9493 53.869 40.3497 53.869ZM42.7436 50.303H37.954C36.3399 50.303 35.0266 48.998 35.0266 47.394C35.0266 45.79 36.3399 44.4851 37.954 44.4851H42.7436C44.3579 44.4851 45.6711 45.79 45.6711 47.394C45.6711 48.998 44.3579 50.303 42.7436 50.303Z" fill="#480CE7"/>
<path d="M55.5689 34.1074V27.365C55.5689 26.1228 54.4003 25.1498 52.9084 25.1498C51.4165 25.1498 50.2479 26.1228 50.2479 27.3675L50.2681 34.1059C47.8878 34.2334 45.9905 36.2019 45.9905 38.6037C45.9905 41.0057 47.8883 42.9745 50.269 43.1015L50.2479 53.3C50.2479 54.5335 51.4165 55.4996 52.9084 55.4996C54.4003 55.4996 55.5689 54.5335 55.5689 53.3V43.0999C57.9396 42.9625 59.8263 40.9987 59.8263 38.6037C59.8263 36.2086 57.9396 34.2448 55.5689 34.1074ZM52.9083 26.7454C53.5177 26.7454 53.973 27.0725 53.973 27.3649V34.0989H51.8636L51.8434 27.3649C51.8435 27.0726 52.2989 26.7454 52.9083 26.7454ZM52.9083 53.9037C52.3086 53.9037 51.8435 53.579 51.8435 53.3015L51.8646 43.1082H53.9731V53.2999C53.9731 53.5791 53.5081 53.9037 52.9083 53.9037ZM55.3032 41.5125H50.5136C48.8993 41.5125 47.5861 40.2076 47.5861 38.6036C47.5861 36.9996 48.8993 35.6946 50.5136 35.6946H55.3032C56.9173 35.6946 58.2306 36.9996 58.2306 38.6036C58.2306 40.2076 56.9173 41.5125 55.3032 41.5125Z" fill="#480CE7"/>
</svg>
