<svg width="80" height="80" viewBox="0 0 80 80" fill="none" xmlns="http://www.w3.org/2000/svg">
<path fill-rule="evenodd" clip-rule="evenodd" d="M40 80C62.0914 80 80 62.0914 80 40C80 17.9086 62.0914 0 40 0C17.9086 0 0 17.9086 0 40C0 62.0914 17.9086 80 40 80Z" fill="#D321FF" fill-opacity="0.13"/>
<circle cx="39.8897" cy="28.0918" r="9.30395" stroke="#480CE7" stroke-width="2.0202"/>
<path d="M58.3176 56.3098C58.3176 57.4326 58.2142 58.5308 58.0164 59.596H58.0121H57.9941H57.9759H57.9575H57.9389H57.9202H57.9013H57.8822H57.8629H57.8434H57.8238H57.8039H57.784H57.7638H57.7434H57.7229H57.7022H57.6814H57.6603H57.6391H57.6177H57.5962H57.5744H57.5525H57.5304H57.5082H57.4858H57.4632H57.4405H57.4175H57.3944H57.3712H57.3478H57.3242H57.3004H57.2765H57.2524H57.2281H57.2037H57.1791H57.1544H57.1295H57.1044H57.0792H57.0538H57.0282H57.0025H56.9766H56.9506H56.9244H56.898H56.8715H56.8449H56.818H56.791H56.7639H56.7366H56.7091H56.6815H56.6537H56.6258H56.5978H56.5695H56.5411H56.5126H56.4839H56.4551H56.4261H56.3969H56.3676H56.3382H56.3086H56.2789H56.249H56.2189H56.1888H56.1584H56.1279H56.0973H56.0665H56.0356H56.0046H55.9734H55.942H55.9105H55.8789H55.8471H55.8152H55.7831H55.7509H55.7185H55.6861H55.6534H55.6207H55.5878H55.5547H55.5215H55.4882H55.4548H55.4212H55.3874H55.3536H55.3196H55.2854H55.2512H55.2167H55.1822H55.1475H55.1127H55.0778H55.0427H55.0075H54.9722H54.9367H54.9011H54.8654H54.8296H54.7936H54.7575H54.7212H54.6849H54.6484H54.6118H54.575H54.5382H54.5012H54.4641H54.4268H54.3895H54.352H54.3144H54.2766H54.2388H54.2008H54.1627H54.1245H54.0861H54.0477H54.0091H53.9704H53.9316H53.8927H53.8536H53.8145H53.7752H53.7358H53.6963H53.6567H53.6169H53.5771H53.5371H53.497H53.4568H53.4165H53.3761H53.3356H53.2949H53.2542H53.2133H53.1723H53.1313H53.0901H53.0488H53.0074H52.9659H52.9242H52.8825H52.8407H52.7987H52.7567H52.7146H52.6723H52.6299H52.5875H52.5449H52.5023H52.4595H52.4166H52.3737H52.3306H52.2874H52.2442H52.2008H52.1573H52.1138H52.0701H52.0264H51.9825H51.9386H51.8945H51.8504H51.8061H51.7618H51.7174H51.6729H51.6283H51.5836H51.5388H51.4939H51.4489H51.4038H51.3587H51.3134H51.2681H51.2226H51.1771H51.1315H51.0858H51.04H50.9942H50.9482H50.9022H50.856H50.8098H50.7635H50.7172H50.6707H50.6241H50.5775H50.5308H50.484H50.4371H50.3902H50.3431H50.296H50.2488H50.2016H50.1542H50.1068H50.0593H50.0117H49.964H49.9163H49.8685H49.8206H49.7726H49.7246H49.6764H49.6283H49.58H49.5317H49.4833H49.4348H49.3862H49.3376H49.2889H49.2402H49.1913H49.1424H49.0935H49.0444H48.9953H48.9461H48.8969H48.8476H48.7982H48.7488H48.6993H48.6497H48.6001H48.5504H48.5006H48.4508H48.4009H48.351H48.301H48.2509H48.2008H48.1506H48.1004H48.0501H47.9997H47.9493H47.8988H47.8483H47.7977H47.747H47.6963H47.6456H47.5947H47.5439H47.4929H47.442H47.3909H47.3398H47.2887H47.2375H47.1863H47.135H47.0836H47.0323H46.9808H46.9293H46.8778H46.8262H46.7746H46.7229H46.6712H46.6194H46.5676H46.5157H46.4638H46.4118H46.3598H46.3078H46.2557H46.2036H46.1514H46.0992H46.0469H45.9946H45.9423H45.8899H45.8375H45.785H45.7325H45.68H45.6274H45.5748H45.5222H45.4695H45.4168H45.364H45.3113H45.2584H45.2056H45.1527H45.0998H45.0468H44.9938H44.9408H44.8878H44.8347H44.7816H44.7284H44.6752H44.622H44.5688H44.5156H44.4623H44.409H44.3556H44.3022H44.2489H44.1954H44.142H44.0885H44.035H43.9815H43.928H43.8744H43.8208H43.7672H43.7136H43.66H43.6063H43.5526H43.4989H43.4452H43.3914H43.3377H43.2839H43.2301H43.1763H43.1224H43.0686H43.0147H42.9609H42.907H42.8531H42.7991H42.7452H42.6913H42.6373H42.5833H42.5293H42.4754H42.4213H42.3673H42.3133H42.2593H42.2052H42.1512H42.0971H42.0431H41.989H41.9349H41.8808H41.8268H41.7727H41.7186H41.6645H41.6104H41.5562H41.5021H41.448H41.3939H41.3398H41.2857H41.2315H41.1774H41.1233H41.0692H41.0151H40.961H40.9069H40.8527H40.7986H40.7445H40.6904H40.6363H40.5823H40.5282H40.4741H40.42H40.366H40.3119H40.2578H40.2038H40.1498H40.0957H40.0417H39.9877H39.9337H39.8797H39.8257H39.7717H39.7177H39.6637H39.6096H39.5556H39.5015H39.4475H39.3934H39.3393H39.2852H39.2311H39.177H39.1229H39.0688H39.0147H38.9606H38.9065H38.8524H38.7983H38.7442H38.69H38.6359H38.5818H38.5277H38.4736H38.4195H38.3653H38.3112H38.2571H38.203H38.1489H38.0948H38.0407H37.9866H37.9325H37.8785H37.8244H37.7703H37.7163H37.6622H37.6082H37.5542H37.5001H37.4461H37.3921H37.3381H37.2841H37.2302H37.1762H37.1223H37.0683H37.0144H36.9605H36.9066H36.8527H36.7989H36.745H36.6912H36.6374H36.5836H36.5298H36.476H36.4223H36.3686H36.3149H36.2612H36.2075H36.1539H36.1002H36.0466H35.993H35.9395H35.8859H35.8324H35.7789H35.7255H35.672H35.6186H35.5652H35.5119H35.4585H35.4052H35.3519H35.2987H35.2454H35.1922H35.1391H35.0859H35.0328H34.9797H34.9267H34.8736H34.8207H34.7677H34.7148H34.6619H34.609H34.5562H34.5034H34.4507H34.398H34.3453H34.2926H34.24H34.1875H34.1349H34.0824H34.03H33.9776H33.9252H33.8728H33.8206H33.7683H33.7161H33.6639H33.6118H33.5597H33.5076H33.4556H33.4037H33.3518H33.2999H33.2481H33.1963H33.1446H33.0929H33.0413H32.9897H32.9381H32.8867H32.8352H32.7838H32.7325H32.6812H32.6299H32.5788H32.5276H32.4765H32.4255H32.3745H32.3236H32.2727H32.2219H32.1712H32.1204H32.0698H32.0192H31.9687H31.9182H31.8678H31.8174H31.7671H31.7169H31.6667H31.6165H31.5665H31.5165H31.4665H31.4166H31.3668H31.3171H31.2674H31.2177H31.1682H31.1187H31.0692H31.0199H30.9706H30.9213H30.8722H30.823H30.774H30.725H30.6761H30.6273H30.5786H30.5299H30.4812H30.4327H30.3842H30.3358H30.2875H30.2392H30.191H30.1429H30.0949H30.0469H29.999H29.9512H29.9035H29.8558H29.8082H29.7607H29.7133H29.6659H29.6186H29.5714H29.5243H29.4773H29.4303H29.3835H29.3367H29.29H29.2433H29.1968H29.1503H29.1039H29.0576H29.0114H28.9653H28.9193H28.8733H28.8274H28.7817H28.736H28.6904H28.6448H28.5994H28.5541H28.5088H28.4637H28.4186H28.3736H28.3287H28.2839H28.2392H28.1946H28.1501H28.1057H28.0613H28.0171H27.9729H27.9289H27.885H27.8411H27.7973H27.7537H27.7101H27.6667H27.6233H27.58H27.5369H27.4938H27.4508H27.408H27.3652H27.3225H27.28H27.2375H27.1952H27.1529H27.1108H27.0687H27.0268H26.985H26.9432H26.9016H26.8601H26.8187H26.7774H26.7362H26.6951H26.6542H26.6133H26.5726H26.5319H26.4914H26.451H26.4107H26.3705H26.3304H26.2904H26.2506H26.2108H26.1712H26.1317H26.0923H26.053H26.0138H25.9748H25.9359H25.897H25.8584H25.8198H25.7813H25.743H25.7048H25.6667H25.6287H25.5908H25.5531H25.5155H25.478H25.4407H25.4034H25.3663H25.3293H25.2924H25.2557H25.2191H25.1826H25.1462H25.11H25.0739H25.0379H25.0021H24.9663H24.9307H24.8953H24.8599H24.8247H24.7897H24.7547H24.7199H24.6853H24.6507H24.6163H24.582H24.5479H24.5139H24.48H24.4463H24.4127H24.3793H24.3459H24.3128H24.2797H24.2468H24.214H24.1814H24.1489H24.1166H24.0844H24.0523H24.0204H23.9886H23.957H23.9255H23.8941H23.8629H23.8318H23.8009H23.7702H23.7395H23.709H23.6787H23.6485H23.6185H23.5886H23.5589H23.5293H23.4998H23.4705H23.4414H23.4124H23.3836H23.3549H23.3263H23.2979H23.2697H23.2416H23.2137H23.186H23.1583H23.1309H23.1036H23.0764H23.0494H23.0226H22.9959H22.9694H22.9431H22.9169H22.8908H22.865H22.8392H22.8137H22.7883H22.763H22.738H22.7131H22.6883H22.6637H22.6393H22.6151H22.591H22.5671H22.5433H22.5197H22.4963H22.473H22.4499H22.427H22.4043H22.3817H22.3593H22.337H22.3149H22.293H22.2713H22.2498H22.2284H22.2071H22.1861H22.1652H22.1445H22.124H22.1037H22.0835H22.0635H22.0437H22.0241H22.0046H21.9853H21.9662H21.9473H21.9285H21.91H21.8916H21.8734H21.8553H21.851C21.6533 58.5308 21.5499 57.4326 21.5499 56.3098C21.5499 46.3106 29.7679 38.1818 39.9337 38.1818C50.0995 38.1818 58.3176 46.3106 58.3176 56.3098Z" stroke="#480CE7" stroke-width="2.0202"/>
<path d="M17.8005 44.9642L20.8859 58.54C21.0532 59.2758 21.7073 59.798 22.4619 59.798H42.4493C43.4864 59.798 44.2551 58.835 44.0252 57.8236L40.9398 44.2479C40.7726 43.5121 40.1184 42.9899 39.3639 42.9899H19.3765C18.3394 42.9899 17.5707 43.9529 17.8005 44.9642Z" fill="#F9E2FF" stroke="#480CE7" stroke-width="2.0202"/>
<path d="M16.9697 59.798H61.2819" stroke="#480CE7" stroke-width="2.0202" stroke-linecap="round"/>
<circle cx="30.7217" cy="51.012" r="2.42792" stroke="#480CE7" stroke-width="2.0202"/>
</svg>
