<svg width="110" height="110" viewBox="0 0 110 110" fill="none" xmlns="http://www.w3.org/2000/svg">
<circle cx="55" cy="55" r="55" fill="#F9E2FF"/>
<path d="M64.0385 60.6992V72.3429C64.0385 72.9344 64.518 73.4137 65.1094 73.4137C65.7008 73.4137 66.1803 72.9344 66.1803 72.3429V59.9252C66.1803 59.4514 65.8689 59.0337 65.4146 58.8988C62.9896 58.1775 60.808 56.6633 59.2717 54.6347C57.6847 52.5394 56.8458 50.0383 56.8458 47.4021C56.8458 40.7888 62.2261 35.4085 68.8394 35.4085C70.0749 35.4085 71.2841 35.5966 72.4319 35.956C72.1087 37.1893 71.6012 38.3576 70.9351 39.4261C70.3227 39.1365 69.6388 38.9738 68.9177 38.9738C66.306 38.9738 64.181 41.0986 64.181 43.7104C64.181 46.3221 66.3058 48.4469 68.9177 48.4469C71.5295 48.4469 73.6543 46.3221 73.6543 43.7104C73.6543 42.5975 73.2675 41.5739 72.6227 40.7646C73.4133 39.5416 74.0221 38.2016 74.4239 36.785C75.8235 37.5219 77.0808 38.5382 78.115 39.7983C78.4902 40.2554 79.1651 40.3217 79.6222 39.9465C80.0793 39.5713 80.1457 38.8966 79.7706 38.4393C78.4167 36.79 76.7391 35.4937 74.8668 34.6114C74.944 33.9999 74.9859 33.3796 74.9859 32.7521C74.9859 24.6179 68.368 18 60.2336 18C52.0991 18 45.4814 24.6179 45.4814 32.7522C45.4814 34.966 45.984 37.1612 46.9366 39.1436C43.948 43.5757 43.6835 49.4247 46.405 54.1275L36.5793 63.9533C36.161 64.3717 36.161 65.0496 36.5793 65.4679C36.9975 65.886 37.6755 65.886 38.0937 65.4679L48.5198 55.0418C48.8807 54.681 48.9368 54.1157 48.6539 53.6911C45.5029 48.9584 46.1387 42.6008 50.1657 38.5739C53.1326 35.607 57.4221 34.4486 61.4073 35.3838C59.9955 36.2601 58.7482 37.3772 57.7246 38.6785C55.8221 38.887 54.0488 39.7327 52.6866 41.0947C49.4003 44.381 49.4003 49.7281 52.6866 53.0145C53.9168 54.2445 55.4511 55.0432 57.1482 55.3459C57.2823 55.5424 57.4197 55.7372 57.5643 55.9281C58.4234 57.0623 59.4552 58.0585 60.6068 58.8848C57.6358 59.376 54.5521 58.7401 52.0089 57.0466C51.5841 56.7639 51.0188 56.8198 50.6582 57.1806L40.8441 66.9946C40.4258 67.4129 40.4258 68.0909 40.8441 68.5091L43.1638 70.829C43.7505 71.3918 43.7505 72.4046 43.1637 72.9674C42.6008 73.554 41.5879 73.5541 41.0252 72.9673L38.7055 70.6476C38.2872 70.2295 37.6092 70.2295 37.191 70.6476L34.4129 73.4257C33.9981 73.8246 33.9981 74.5413 34.4129 74.9403L36.7325 77.2597C37.3221 77.8494 37.3221 78.8088 36.7326 79.3983C36.1429 79.9881 35.1836 79.9879 34.5941 79.3983L32.2744 77.0785C31.8562 76.6604 31.1782 76.6604 30.76 77.0785L27.7215 80.117C27.1318 80.7066 26.1725 80.7065 25.583 80.1171C24.9934 79.5275 24.9934 78.568 25.583 77.9785L35.0648 68.4967C35.483 68.0783 35.483 67.4005 35.0648 66.9821C34.6466 66.564 33.9686 66.564 33.5503 66.9821L24.0684 76.464C22.6439 77.8886 22.6439 80.2067 24.0684 81.6316C25.4931 83.056 27.8111 83.056 29.2358 81.6316L31.517 79.3503L33.0797 80.913C34.5042 82.3374 36.8224 82.3375 38.2471 80.9128C39.6716 79.4883 39.6716 77.1701 38.2471 75.7453L36.6846 74.1829L37.9482 72.9193L39.5107 74.4816C40.8709 75.8993 43.3181 75.8992 44.6783 74.4818C46.0957 73.1218 46.0958 70.6742 44.6783 69.3144L43.1158 67.7517L51.5724 59.2951C55.1142 61.3439 59.4055 61.7553 63.295 60.4027C63.5402 60.508 63.7876 60.6083 64.0385 60.6992ZM68.9177 41.1155C69.1514 41.1155 69.3769 41.1494 69.5925 41.2076C68.6673 42.232 67.5683 43.1096 66.3271 43.7943C66.3262 43.7661 66.3228 43.7386 66.3228 43.7103C66.3228 42.2796 67.4868 41.1155 68.9177 41.1155ZM71.5125 43.7105C71.5125 45.1412 70.3485 46.3053 68.9177 46.3053C68.2947 46.3053 67.7224 46.0843 67.2747 45.7169C68.7911 44.8937 70.1297 43.8263 71.2466 42.5734C71.4151 42.9173 71.5125 43.3023 71.5125 43.7105ZM48.6512 37.0593C48.5844 37.1262 48.521 37.1953 48.4557 37.2632C47.9087 35.8309 47.623 34.297 47.623 32.7523C47.623 25.7989 53.28 20.1419 60.2334 20.1419C67.1869 20.1419 72.8439 25.7989 72.8439 32.7523C72.8439 33.1143 72.8268 33.4732 72.7964 33.8293C71.5265 33.4603 70.1964 33.2669 68.8391 33.2669C67.2127 33.2669 65.6499 33.5439 64.1943 34.0518C58.9196 31.8032 52.7267 32.9838 48.6512 37.0593ZM56.0846 41.3127C55.6393 42.2415 55.2928 43.2262 55.0582 44.253C54.5257 44.0131 54.0097 43.7379 53.5144 43.4253C53.717 43.139 53.9447 42.8653 54.2009 42.609C54.7503 42.0597 55.3894 41.623 56.0846 41.3127ZM54.2011 51.4997C52.544 49.8426 52.0088 47.4832 52.5924 45.3708C53.2776 45.7866 53.9942 46.145 54.7374 46.4434C54.7161 46.7603 54.7042 47.0799 54.7042 47.4022C54.7042 49.2122 55.0422 50.9675 55.6925 52.6067C55.1495 52.3177 54.6484 51.947 54.2011 51.4997Z" fill="#480CE7"/>
<path d="M82.0849 42.4564C81.878 41.9022 81.261 41.6212 80.707 41.8281C80.1529 42.0351 79.8716 42.6519 80.0785 43.2061C80.579 44.5457 80.8328 45.9576 80.8328 47.4022C80.8328 52.6089 77.5095 57.1917 72.5629 58.8057C72.1223 58.9495 71.8242 59.3603 71.8242 59.8237V65.7697L68.7907 68.1222C68.2437 68.5242 68.2438 69.4127 68.7907 69.8147L71.1477 71.6425L68.7906 73.4704C68.2437 73.8724 68.2437 74.7609 68.7906 75.1629L71.1475 76.9907L68.7906 78.8185C68.2436 79.2205 68.2437 80.109 68.7906 80.5109L71.8241 82.8634V85.4332L68.8772 88.3524L66.1802 85.4583V76.6263C66.1802 76.0348 65.7007 75.5554 65.1093 75.5554C64.518 75.5554 64.0385 76.0348 64.0385 76.6263V85.88C64.0385 86.1508 64.1412 86.4118 64.3259 86.6101L68.0633 90.6207C68.4552 91.0586 69.1912 91.0734 69.6004 90.6513L73.6489 86.6408C73.852 86.4397 73.9661 86.1657 73.9661 85.88V82.339C73.9661 82.008 73.8131 81.6957 73.5514 81.4927L71.1945 79.6649L73.5514 77.8371C74.0985 77.4351 74.0984 76.5467 73.5514 76.1447L71.1945 74.3169L73.5514 72.4889C74.0985 72.0869 74.0984 71.1984 73.5514 70.7965L71.1945 68.9686L73.5514 67.1408C73.8131 66.9379 73.9661 66.6256 73.9661 66.2945V60.5782C79.386 58.4753 82.9747 53.2757 82.9747 47.4022C82.9745 45.7008 82.6753 44.0367 82.0849 42.4564Z" fill="#480CE7"/>
</svg>
