<svg width="209" height="33" viewBox="0 0 209 33" fill="none" xmlns="http://www.w3.org/2000/svg">
<path d="M54.8646 24.4851H64.3947V21.886H57.6005V8.52569H54.8646V24.4851ZM68.3617 24.4851H71.1204L72.5796 20.7004H79.3281L80.7873 24.4851H83.546L77.3446 8.52569H74.5631L68.3617 24.4851ZM75.9539 11.9684L78.3478 18.1925H73.5599L75.9539 11.9684ZM91.1979 24.4851H93.9338V11.1248H98.3341V8.52569H86.7977V11.1248H91.1979V24.4851ZM104.312 24.4851H107.047V8.52569H104.312V24.4851ZM113.611 24.4851H124.122V21.886H118.992L122.663 17.1438C123.05 16.6194 124.053 15.2058 124.053 13.2223C124.053 10.5776 122.389 8.25211 118.946 8.25211C114.683 8.25211 113.657 12.242 113.657 12.242L116.096 13.1311C116.096 13.1311 116.598 10.8056 118.946 10.8056C120.451 10.8056 121.317 11.9912 121.317 13.2679C121.317 15.0691 120.063 16.2774 119.471 17.0526L113.611 24.4851ZM140.256 18.3521C140.256 20.632 139.094 22.1596 136.837 22.1596C134.557 22.1596 133.417 20.632 133.417 18.3521C133.417 13.0855 133.417 8.52569 133.417 8.52569H130.681V18.6941C130.681 22.2052 133.075 24.7587 136.837 24.7587C140.598 24.7587 142.992 22.2052 142.992 18.6941V8.52569H140.256C140.256 8.52569 140.256 13.0855 140.256 18.3521ZM155.178 8.52569H150.025V24.4851H155.178C159.829 24.4851 163.066 21.1108 163.066 16.5054C163.066 11.9 159.829 8.52569 155.178 8.52569ZM155.224 21.886H152.761V11.1248H155.224C158.324 11.1248 160.285 13.5871 160.285 16.5054C160.285 19.4009 158.324 21.886 155.224 21.886ZM171.905 11.1248H178.836V8.52569H169.169V24.4851H178.973V21.886H171.905V17.5998H178.289V15.0007H171.905V11.1248Z" fill="#1A1944"/>
<circle cx="19.6873" cy="16.2127" r="16.2127" fill="#E3DCF0"/>
<path d="M35.8994 16.2126C35.8994 25.1667 28.6408 32.4253 19.6868 32.4253C10.7328 32.4253 3.47412 25.1667 3.47412 16.2126C3.47412 16.2126 10.7328 16.2127 19.6868 16.2127C28.6408 16.2127 35.8994 16.2126 35.8994 16.2126Z" fill="url(#paint0_linear)"/>
<rect y="13.8965" width="39.3736" height="4.63219" rx="2.31609" fill="#FA1EFF"/>
<defs>
<linearGradient id="paint0_linear" x1="19.2437" y1="14.6927" x2="19.2437" y2="32.4253" gradientUnits="userSpaceOnUse">
<stop stop-color="#D661FF"/>
<stop offset="1" stop-color="#4108E6"/>
<stop offset="1" stop-color="#3400CA"/>
</linearGradient>
</defs>
</svg>