<svg width="110" height="110" viewBox="0 0 110 110" fill="none" xmlns="http://www.w3.org/2000/svg">
<circle cx="55" cy="55" r="55" fill="#F9E2FF"/>
<path d="M87.5 45H81.875V32.625H81.8742C81.8745 32.4212 81.8194 32.2211 81.7147 32.0462L74.9647 20.7962C74.8647 20.6296 74.7234 20.4917 74.5543 20.396C74.3852 20.3003 74.1943 20.25 74 20.25C73.8057 20.25 73.6148 20.3003 73.4457 20.396C73.2766 20.4917 73.1353 20.6296 73.0353 20.7962L66.2853 32.0462C66.1806 32.2211 66.1255 32.4212 66.1258 32.625H66.125V38.25H61.625V36H62.75C63.0484 36 63.3345 35.8815 63.5455 35.6705C63.7565 35.4595 63.875 35.1734 63.875 34.875V28.125C63.875 27.8267 63.7565 27.5405 63.5455 27.3295C63.3345 27.1185 63.0484 27 62.75 27H58.25C57.9516 27 57.6655 27.1185 57.4545 27.3295C57.2435 27.5405 57.125 27.8267 57.125 28.125V29.25H54.875V28.125C54.875 27.8267 54.7565 27.5405 54.5455 27.3295C54.3345 27.1185 54.0484 27 53.75 27H49.25C48.9516 27 48.6655 27.1185 48.4545 27.3295C48.2435 27.5405 48.125 27.8267 48.125 28.125V34.875C48.125 35.1734 48.2435 35.4595 48.4545 35.6705C48.6655 35.8815 48.9516 36 49.25 36H50.375V38.25H45.875V32.625H45.8742C45.8745 32.4212 45.8193 32.2211 45.7147 32.0462L38.9647 20.7962C38.8647 20.6296 38.7233 20.4917 38.5543 20.396C38.3852 20.3003 38.1943 20.25 38 20.25C37.8057 20.25 37.6148 20.3003 37.4457 20.396C37.2767 20.4917 37.1353 20.6296 37.0353 20.7962L30.2853 32.0462C30.1807 32.2211 30.1255 32.4212 30.1258 32.625H30.125V45H24.5C24.2016 45 23.9155 45.1185 23.7045 45.3295C23.4935 45.5405 23.375 45.8267 23.375 46.125V50.625C23.375 50.9234 23.4935 51.2095 23.7045 51.4205C23.9155 51.6315 24.2016 51.75 24.5 51.75V86.625C24.5 86.9234 24.6185 87.2095 24.8295 87.4205C25.0405 87.6315 25.3266 87.75 25.625 87.75H86.375C86.6734 87.75 86.9595 87.6315 87.1705 87.4205C87.3815 87.2095 87.5 86.9234 87.5 86.625V51.75C87.7984 51.75 88.0845 51.6315 88.2955 51.4205C88.5065 51.2095 88.625 50.9234 88.625 50.625V46.125C88.625 45.8267 88.5065 45.5405 88.2955 45.3295C88.0845 45.1185 87.7984 45 87.5 45ZM86.375 49.5H72.875V47.25H86.375V49.5ZM48.125 74.25H50.375V85.5H48.125V74.25ZM48.6505 72C49.7648 70.7951 52.5484 69.75 56 69.75C59.4516 69.75 62.2352 70.7951 63.3496 72H48.6505ZM52.625 74.25H54.875V85.5H52.625V74.25ZM57.125 74.25H59.375V85.5H57.125V74.25ZM61.625 74.25H63.875V85.5H61.625V74.25ZM66.125 73.125C66.125 71.4748 64.9679 69.9874 62.8671 68.9369C61.014 68.0103 58.5753 67.5 56 67.5C53.4247 67.5 50.986 68.0103 49.1329 68.9369C47.0321 69.9874 45.875 71.4748 45.875 73.125V85.5H40.25V65.25H71.75V85.5H66.125V73.125ZM44.75 60.75C45.0484 60.75 45.3345 60.6315 45.5455 60.4205C45.7565 60.2095 45.875 59.9234 45.875 59.625V58.5H48.125V59.625C48.125 59.9234 48.2435 60.2095 48.4545 60.4205C48.6655 60.6315 48.9516 60.75 49.25 60.75H53.75C54.0484 60.75 54.3345 60.6315 54.5455 60.4205C54.7565 60.2095 54.875 59.9234 54.875 59.625V58.5H57.125V59.625C57.125 59.9234 57.2435 60.2095 57.4545 60.4205C57.6655 60.6315 57.9516 60.75 58.25 60.75H62.75C63.0484 60.75 63.3345 60.6315 63.5455 60.4205C63.7565 60.2095 63.875 59.9234 63.875 59.625V58.5H66.125V59.625C66.125 59.9234 66.2435 60.2095 66.4545 60.4205C66.6655 60.6315 66.9516 60.75 67.25 60.75H71.75V63H40.25V60.75H44.75ZM79.625 36H77.375V33.75H79.625V36ZM75.125 36H72.875V33.75H75.125V36ZM70.625 36H68.375V33.75H70.625V36ZM71.75 45C71.4516 45 71.1655 45.1185 70.9545 45.3295C70.7435 45.5405 70.625 45.8267 70.625 46.125V50.625C70.625 50.9234 70.7435 51.2095 70.9545 51.4205C71.1655 51.6315 71.4516 51.75 71.75 51.75V58.5H68.375V38.25H79.625V45H71.75ZM74 23.5616L78.763 31.5H69.237L74 23.5616ZM50.375 29.25H52.625V30.375C52.625 30.6734 52.7435 30.9595 52.9545 31.1705C53.1655 31.3815 53.4516 31.5 53.75 31.5H58.25C58.5484 31.5 58.8345 31.3815 59.0455 31.1705C59.2565 30.9595 59.375 30.6734 59.375 30.375V29.25H61.625V33.75H50.375V29.25ZM52.625 36H59.375V38.25H52.625V36ZM66.125 40.5V56.25H62.75C62.4516 56.25 62.1655 56.3685 61.9545 56.5795C61.7435 56.7905 61.625 57.0767 61.625 57.375V58.5H59.375V57.375C59.375 57.0767 59.2565 56.7905 59.0455 56.5795C58.8345 56.3685 58.5484 56.25 58.25 56.25H53.75C53.4516 56.25 53.1655 56.3685 52.9545 56.5795C52.7435 56.7905 52.625 57.0767 52.625 57.375V58.5H50.375V57.375C50.375 57.0767 50.2565 56.7905 50.0455 56.5795C49.8345 56.3685 49.5484 56.25 49.25 56.25H45.875V40.5H66.125ZM32.375 33.75H34.625V36H32.375V33.75ZM36.875 33.75H39.125V36H36.875V33.75ZM41.375 33.75H43.625V36H41.375V33.75ZM38 23.5616L42.7631 31.5H33.2369L38 23.5616ZM32.375 38.25H43.625V58.5H40.25V51.75C40.5484 51.75 40.8345 51.6315 41.0455 51.4205C41.2565 51.2095 41.375 50.9234 41.375 50.625V46.125C41.375 45.8267 41.2565 45.5405 41.0455 45.3295C40.8345 45.1185 40.5484 45 40.25 45H32.375V38.25ZM25.625 47.25H39.125V49.5H25.625V47.25ZM26.75 51.75H38V85.5H26.75V51.75ZM85.25 85.5H74V51.75H85.25V85.5Z" fill="#480CE7"/>
<path d="M61.625 42.75H63.875V45H61.625V42.75Z" fill="#480CE7"/>
<path d="M57.125 42.75H59.375V45H57.125V42.75Z" fill="#480CE7"/>
<path d="M75.125 40.5H77.375V42.75H75.125V40.5Z" fill="#480CE7"/>
<path d="M70.625 40.5H72.875V42.75H70.625V40.5Z" fill="#480CE7"/>
<path d="M39.125 40.5H41.375V42.75H39.125V40.5Z" fill="#480CE7"/>
<path d="M34.625 40.5H36.875V42.75H34.625V40.5Z" fill="#480CE7"/>
<path d="M52.625 42.75H54.875V45H52.625V42.75Z" fill="#480CE7"/>
<path d="M48.125 42.75H50.375V45H48.125V42.75Z" fill="#480CE7"/>
<path d="M61.625 47.25H63.875V49.5H61.625V47.25Z" fill="#480CE7"/>
<path d="M57.125 47.25H59.375V49.5H57.125V47.25Z" fill="#480CE7"/>
<path d="M52.625 47.25H54.875V49.5H52.625V47.25Z" fill="#480CE7"/>
<path d="M48.125 47.25H50.375V49.5H48.125V47.25Z" fill="#480CE7"/>
<path d="M61.625 51.75H63.875V54H61.625V51.75Z" fill="#480CE7"/>
<path d="M57.125 51.75H59.375V54H57.125V51.75Z" fill="#480CE7"/>
<path d="M52.625 51.75H54.875V54H52.625V51.75Z" fill="#480CE7"/>
<path d="M48.125 51.75H50.375V54H48.125V51.75Z" fill="#480CE7"/>
<path d="M77.375 65.25H81.875C82.1734 65.25 82.4595 65.1315 82.6705 64.9205C82.8815 64.7095 83 64.4234 83 64.125V59.625C83 58.7299 82.6444 57.8715 82.0115 57.2385C81.3785 56.6056 80.5201 56.25 79.625 56.25C78.7299 56.25 77.8715 56.6056 77.2385 57.2385C76.6056 57.8715 76.25 58.7299 76.25 59.625V64.125C76.25 64.4234 76.3685 64.7095 76.5795 64.9205C76.7905 65.1315 77.0766 65.25 77.375 65.25ZM78.5 59.625C78.5 59.3266 78.6185 59.0405 78.8295 58.8295C79.0405 58.6185 79.3266 58.5 79.625 58.5C79.9234 58.5 80.2095 58.6185 80.4205 58.8295C80.6315 59.0405 80.75 59.3266 80.75 59.625V63H78.5V59.625Z" fill="#480CE7"/>
<path d="M32.375 56.25C31.4802 56.251 30.6223 56.6069 29.9896 57.2396C29.3569 57.8723 29.001 58.7302 29 59.625V64.125C29 64.4234 29.1185 64.7095 29.3295 64.9205C29.5405 65.1315 29.8266 65.25 30.125 65.25H34.625C34.9234 65.25 35.2095 65.1315 35.4205 64.9205C35.6315 64.7095 35.75 64.4234 35.75 64.125V59.625C35.749 58.7302 35.3931 57.8723 34.7604 57.2396C34.1277 56.6069 33.2698 56.251 32.375 56.25ZM33.5 63H31.25V59.625C31.25 59.3266 31.3685 59.0405 31.5795 58.8295C31.7905 58.6185 32.0766 58.5 32.375 58.5C32.6734 58.5 32.9595 58.6185 33.1705 58.8295C33.3815 59.0405 33.5 59.3266 33.5 59.625V63Z" fill="#480CE7"/>
</svg>
