<svg width="80" height="80" viewBox="0 0 80 80" fill="none" xmlns="http://www.w3.org/2000/svg">
<path fill-rule="evenodd" clip-rule="evenodd" d="M40 80C62.0914 80 80 62.0914 80 40C80 17.9086 62.0914 0 40 0C17.9086 0 0 17.9086 0 40C0 62.0914 17.9086 80 40 80Z" fill="#D321FF" fill-opacity="0.13"/>
<path d="M55.7792 41.2561C55.7757 39.8236 55.4381 38.4157 54.7944 37.1377L56.2728 35.6593C57.3812 34.551 57.3812 32.7475 56.2728 31.6391C55.72 31.0862 54.9943 30.8093 54.2681 30.8079C54.2671 30.0501 53.9715 29.3378 53.4356 28.8018C52.8824 28.2488 52.1561 27.9717 51.4295 27.9707C51.4285 27.2441 51.1514 26.5178 50.5983 25.9646C50.0626 25.429 49.3508 25.1335 48.5935 25.1321C48.5921 24.3749 48.2967 23.6631 47.7611 23.1274C47.2241 22.5904 46.5102 22.2948 45.7509 22.2948C44.9917 22.2948 44.2777 22.5904 43.7409 23.1274L40.8086 26.0597L39.1769 24.428C38.64 23.8911 37.9262 23.5954 37.1668 23.5954C36.4075 23.5954 35.6936 23.8911 35.1568 24.428C34.6208 24.964 34.3253 25.6763 34.3242 26.4341C33.5981 26.4355 32.8723 26.7124 32.3195 27.2652C31.7838 27.8009 31.4883 28.5127 31.4869 29.27C30.7297 29.2714 30.0178 29.5669 29.4821 30.1025C28.5669 31.0178 28.4083 32.4068 29.0046 33.4872C28.5939 33.6215 28.2077 33.8508 27.8818 34.1767C26.7735 35.2851 26.7735 37.0885 27.8818 38.1969L29.0658 39.3809L19.659 48.7877C19.3324 49.1144 19.3324 49.644 19.659 49.9708C19.8224 50.134 20.0365 50.2158 20.2505 50.2158C20.4646 50.2158 20.6787 50.134 20.842 49.9708L27.2187 43.594L33.1922 49.5675L23.6243 59.1354C23.2977 59.462 23.2977 59.9917 23.6243 60.3184C23.7877 60.4817 24.0018 60.5634 24.2158 60.5634C24.4299 60.5634 24.644 60.4817 24.8073 60.3184L37.7395 47.3862C37.9777 47.148 38.2489 46.9549 38.5423 46.8097L40.5662 48.1428C41.9048 49.0245 43.5369 49.3689 45.1104 49.1141L56.3573 60.3611C56.5207 60.5243 56.7347 60.6061 56.9488 60.6061C57.1628 60.6061 57.377 60.5243 57.5403 60.3611C57.8669 60.0344 57.8669 59.5048 57.5403 59.1781L51.0146 52.6524L51.8035 51.8635C52.1301 51.5369 52.1301 51.0072 51.8035 50.6805C51.4768 50.3539 50.9472 50.3539 50.6205 50.6805L49.8316 51.4694L47.9846 49.6224L54.8819 42.7249L56.729 44.572L55.9419 45.3591C55.6153 45.6858 55.6153 46.2154 55.9419 46.5421C56.1053 46.7054 56.3193 46.7871 56.5334 46.7871C56.7474 46.7871 56.9616 46.7054 57.1249 46.5421L57.912 45.755L60.7932 48.6362C60.9566 48.7995 61.1706 48.8813 61.3847 48.8813C61.5987 48.8813 61.8129 48.7995 61.9761 48.6362C62.3028 48.3096 62.3028 47.78 61.9761 47.4532L55.7792 41.2561ZM44.9238 24.3103C45.1447 24.0894 45.4385 23.9677 45.7509 23.9677C46.0634 23.9677 46.3571 24.0894 46.578 24.3103C46.799 24.5312 46.9207 24.825 46.9207 25.1374C46.9207 25.4499 46.799 25.7437 46.578 25.9646L44.7399 27.8028C44.4133 28.1294 44.4133 28.659 44.7399 28.9858C45.0665 29.3125 45.5962 29.3124 45.9229 28.9858L47.7611 27.1476C47.982 26.9266 48.2757 26.805 48.5882 26.805C48.9007 26.805 49.1944 26.9267 49.4154 27.1476C49.8715 27.6038 49.8715 28.3458 49.4154 28.8019L46.6085 31.6088C46.2818 31.9354 46.2818 32.4651 46.6085 32.7918C46.7719 32.9552 46.9859 33.0368 47.2 33.0368C47.414 33.0368 47.6281 32.9552 47.7914 32.7918L50.5983 29.9849C50.8192 29.7639 51.113 29.6423 51.4254 29.6423C51.7379 29.6423 52.0317 29.764 52.2526 29.9849C52.4735 30.2059 52.5952 30.4996 52.5952 30.812C52.5952 31.1245 52.4735 31.4182 52.2526 31.6391L49.4457 34.446C49.1191 34.7727 49.1191 35.3023 49.4457 35.629C49.6091 35.7924 49.8231 35.874 50.0372 35.874C50.2512 35.874 50.4654 35.7924 50.6287 35.629L53.4354 32.8222C53.8915 32.366 54.6337 32.3661 55.0897 32.8222C55.5459 33.2783 55.5459 34.0204 55.0897 34.4765L48.1758 41.3904C45.9621 43.6041 43.0189 44.8233 39.8882 44.8233C39.0404 44.8233 38.2272 45.0465 37.5144 45.4637L32.6728 40.6221C33.0454 40.4814 33.3873 40.2625 33.6774 39.9724C34.2134 39.4364 34.5088 38.7241 34.5099 37.9663C35.2361 37.965 35.9619 37.6879 36.5147 37.1351C37.0675 36.5823 37.3445 35.8566 37.3458 35.1303C38.1037 35.1293 38.816 34.8338 39.3519 34.2978C39.9048 33.745 40.1817 33.0192 40.183 32.293C40.9409 32.292 41.6531 31.9965 42.1891 31.4606C42.726 30.9236 43.0217 30.2098 43.0217 29.4504C43.0217 28.6911 42.726 27.9772 42.1891 27.4403L41.9912 27.2425L44.9238 24.3103ZM36.3397 25.6109C36.5606 25.39 36.8544 25.2683 37.1668 25.2683C37.4792 25.2683 37.773 25.39 37.9939 25.6109L41.0064 28.6233C41.2273 28.8442 41.349 29.138 41.349 29.4504C41.349 29.7629 41.2273 30.0566 41.0064 30.2776C40.7855 30.4985 40.4917 30.6202 40.1793 30.6202C39.8669 30.6202 39.5733 30.4986 39.3524 30.2779C39.3523 30.2778 39.3523 30.2777 39.3522 30.2775L36.3397 27.2652C36.1188 27.0442 35.9971 26.7505 35.9971 26.438C35.9971 26.1256 36.1187 25.8319 36.3397 25.6109ZM33.5024 28.4482C33.7305 28.2201 34.03 28.1061 34.3296 28.1061C34.6291 28.1061 34.9287 28.2202 35.1567 28.4482L38.1691 31.4606C38.6252 31.9167 38.6251 32.6588 38.1691 33.1149C37.9482 33.3358 37.6544 33.4576 37.342 33.4576C37.0296 33.4576 36.736 33.3359 36.5151 33.1152C36.515 33.1151 36.5149 33.115 36.5149 33.1148L33.5025 30.1025C33.2815 29.8816 33.1599 29.5878 33.1599 29.2753C33.1598 28.9629 33.2815 28.6692 33.5024 28.4482ZM30.6652 31.2855C30.8861 31.0645 31.1799 30.9429 31.4923 30.9429C31.8048 30.9429 32.0985 31.0646 32.3195 31.2855L35.3318 34.2979C35.788 34.754 35.788 35.4961 35.3318 35.9522C34.8757 36.4082 34.1336 36.4083 33.6775 35.9522L30.6651 32.9398C30.209 32.4837 30.209 31.7415 30.6652 31.2855ZM29.0647 35.3596C29.2929 35.1315 29.5924 35.0176 29.8919 35.0176C30.1911 35.0176 30.4903 35.1314 30.7182 35.3589L32.4945 37.1352C32.7154 37.3561 32.8372 37.6499 32.8372 37.9623C32.8372 38.2747 32.7154 38.5685 32.4945 38.7895C32.2736 39.0105 31.9799 39.1321 31.6673 39.1321C31.3552 39.1321 31.0616 39.0106 30.8407 38.7899L30.8402 38.7895L29.0647 37.014C28.6087 36.5578 28.6087 35.8156 29.0647 35.3596ZM28.4018 42.411L30.2489 40.5639L36.2224 46.5374L34.3753 48.3845L28.4018 42.411ZM45.977 47.6148C45.771 47.4088 45.4727 47.3244 45.1897 47.3931C43.9237 47.6978 42.5739 47.4619 41.4865 46.7457L41.0335 46.4472C44.179 46.1825 47.1012 44.8311 49.3589 42.5733L53.5334 38.3989C53.8925 39.2668 54.0862 40.1943 54.104 41.1372L46.8018 48.4395L45.977 47.6148Z" fill="#480CE7"/>
<path d="M53.2802 48.0209C53.1247 48.1765 53.0352 48.3915 53.0352 48.6123C53.0352 48.8323 53.1247 49.0481 53.2802 49.2036C53.4358 49.3592 53.6516 49.4488 53.8716 49.4488C54.0925 49.4488 54.3075 49.3593 54.463 49.2036C54.6186 49.0481 54.7081 48.8323 54.7081 48.6123C54.7081 48.3914 54.6186 48.1765 54.463 48.0209C54.3075 47.8653 54.0916 47.7758 53.8716 47.7758C53.6516 47.7758 53.4358 47.8653 53.2802 48.0209Z" fill="#480CE7"/>
<path d="M25.045 24.6118C25.2084 24.7752 25.4224 24.8568 25.6365 24.8568C25.8505 24.8568 26.0647 24.7752 26.2279 24.6118C26.5546 24.2852 26.5546 23.7555 26.2279 23.4288L22.2906 19.4915C21.9639 19.1648 21.4343 19.1648 21.1076 19.4915C20.7808 19.8181 20.7809 20.3478 21.1076 20.6745L25.045 24.6118Z" fill="#480CE7"/>
<path d="M29.5987 22.3379C30.0607 22.3379 30.4352 21.9634 30.4352 21.5014V18.6143C30.4352 18.1523 30.0607 17.7778 29.5987 17.7778C29.1367 17.7778 28.7622 18.1523 28.7622 18.6143V21.5014C28.7622 21.9634 29.1367 22.3379 29.5987 22.3379Z" fill="#480CE7"/>
<path d="M20.2303 28.8192H23.1174C23.5794 28.8192 23.9539 28.4447 23.9539 27.9827C23.9539 27.5208 23.5794 27.1463 23.1174 27.1463H20.2303C19.7683 27.1463 19.3938 27.5208 19.3938 27.9827C19.3938 28.4447 19.7683 28.8192 20.2303 28.8192Z" fill="#480CE7"/>
<path d="M55.9786 24.8568C56.1927 24.8568 56.4068 24.7752 56.5701 24.6118L60.5075 20.6744C60.8341 20.3478 60.8341 19.8182 60.5075 19.4914C60.1808 19.1647 59.6512 19.1648 59.3244 19.4914L55.3871 23.4288C55.0604 23.7554 55.0604 24.2851 55.3871 24.6118C55.5505 24.7752 55.7646 24.8568 55.9786 24.8568Z" fill="#480CE7"/>
<path d="M52.0162 22.3379C52.4781 22.3379 52.8526 21.9634 52.8526 21.5014V18.6143C52.8526 18.1523 52.4781 17.7778 52.0162 17.7778C51.5542 17.7778 51.1797 18.1523 51.1797 18.6143V21.5014C51.1797 21.9634 51.5542 22.3379 52.0162 22.3379Z" fill="#480CE7"/>
<path d="M57.6611 27.9827C57.6611 28.4447 58.0356 28.8192 58.4976 28.8192H61.3848C61.8468 28.8192 62.2212 28.4447 62.2212 27.9827C62.2212 27.5208 61.8468 27.1463 61.3848 27.1463H58.4976C58.0356 27.1463 57.6611 27.5208 57.6611 27.9827Z" fill="#480CE7"/>
</svg>
