<svg width="321" height="232" viewBox="0 0 321 232" fill="none" xmlns="http://www.w3.org/2000/svg">
<g opacity="0.2">
<path fill-rule="evenodd" clip-rule="evenodd" d="M188.119 212.497C239.73 212.497 281.569 170.658 281.569 119.047C281.569 67.4362 239.73 25.5972 188.119 25.5972C136.508 25.5972 94.6689 67.4362 94.6689 119.047C94.6689 170.658 136.508 212.497 188.119 212.497Z" fill="#D321FF"/>
<path fill-rule="evenodd" clip-rule="evenodd" d="M303.51 212.091C312.71 212.091 320.168 204.633 320.168 195.433C320.168 186.232 312.71 178.774 303.51 178.774C294.309 178.774 286.851 186.232 286.851 195.433C286.851 204.633 294.309 212.091 303.51 212.091Z" fill="#2B44FF"/>
<path fill-rule="evenodd" clip-rule="evenodd" d="M172.679 0L192.588 19.9089L172.679 39.8179L152.771 19.9089L172.679 0Z" fill="#2B44FF"/>
<path fill-rule="evenodd" clip-rule="evenodd" d="M248.659 110.921L258.41 120.672L248.659 130.424L238.907 120.672L248.659 110.921Z" fill="#F6D3FF"/>
<path fill-rule="evenodd" clip-rule="evenodd" d="M258.41 25.5972L263.285 30.4728L258.41 35.3485L253.534 30.4728L258.41 25.5972Z" fill="#2026A2"/>
</g>
<rect x="4.06299" y="71.24" width="212.622" height="140.726" rx="28" transform="rotate(-1.67946 4.06299 71.24)" fill="#F2F2F2"/>
<rect x="6.86401" y="73.4387" width="207.101" height="135.286" rx="20" transform="rotate(-1.67946 6.86401 73.4387)" fill="#8530F1"/>
<rect x="14.5962" y="79.1428" width="94.2352" height="59.9678" rx="10" transform="rotate(-1.64871 14.5962 79.1428)" fill="#6000D9"/>
<rect x="16.4236" y="142.629" width="94.2352" height="59.9678" rx="10" transform="rotate(-1.64871 16.4236 142.629)" fill="#6000D9"/>
<rect x="114.578" y="139.636" width="94.2352" height="59.9678" rx="10" transform="rotate(-1.64871 114.578 139.636)" fill="#6000D9"/>
<rect x="112.927" y="76.3123" width="94.2352" height="59.9678" rx="10" transform="rotate(-1.64871 112.927 76.3123)" fill="#6000D9"/>
<mask id="mask0" mask-type="alpha" maskUnits="userSpaceOnUse" x="0" y="43" width="198" height="161">
<rect y="50.5762" width="191.848" height="153.124" transform="rotate(-2 0 50.5762)" fill="white"/>
</mask>
<g mask="url(#mask0)">
<path fill-rule="evenodd" clip-rule="evenodd" d="M165.139 84.3772C166.195 88.3329 167.966 91.4611 169.419 92.2854C173.063 94.3524 183.627 83.9496 185.428 77.5657C187.229 71.1818 177.39 58.1396 168.763 65.9026C165.768 68.5969 164.493 72.3499 164.256 76.1887L146.564 88.0657L155.916 97.097L165.139 84.3772Z" fill="#B28B67"/>
<path fill-rule="evenodd" clip-rule="evenodd" d="M190.35 74.6972C188.343 76.7757 185.071 76.8979 182.911 75.0238C181.387 74.2512 179.621 73.0593 177.838 71.5547C177.411 72.3221 176.83 73.1009 176.073 73.8846C175.405 74.5765 174.62 75.2366 173.759 75.8457C173.812 75.064 173.599 74.3139 173.106 73.838C171.727 72.5068 169.674 72.7127 168.513 73.9151C167.039 75.4412 166.855 77.3971 168.058 78.729C164.751 79.8322 161.531 79.9574 159.928 78.41C156.885 75.4708 158.645 69.3171 162.864 64.9479C163.013 64.7943 163.163 64.6448 163.315 64.4992C161.603 64.2103 159.754 64.2139 157.892 64.2175C153.936 64.2251 149.92 64.2329 147.023 61.4355C141.228 55.8385 150.2 41.9412 158.297 49.761C163.804 55.079 165.739 58.4967 166.928 61.9369C168.64 61.0853 170.395 60.6734 171.988 60.7413C172.419 60.7085 172.951 60.7922 173.559 60.981C173.94 61.0856 174.305 61.2239 174.651 61.3965C176.558 62.2393 178.949 63.8443 181.304 65.9648C181.744 66.3607 182.166 66.7598 182.568 67.1588C184.645 65.0217 188.063 64.9683 190.211 67.0426C192.363 69.1209 192.425 72.548 190.35 74.6972Z" fill="#191847"/>
<path fill-rule="evenodd" clip-rule="evenodd" d="M82.4731 171.978C82.4731 171.978 100.4 181.365 114.23 184.305C128.06 187.244 141.668 181.549 141.668 181.549C141.668 181.549 124.179 172.108 112.109 169.542C100.038 166.976 82.4731 171.978 82.4731 171.978Z" fill="#6000D9"/>
<path fill-rule="evenodd" clip-rule="evenodd" d="M124.141 191.77C124.058 191.56 123.997 191.337 123.961 191.102C123.218 186.246 106.319 131.966 105.493 122.523L136.125 129.034C136.753 136.213 137.036 180.49 136.547 189.208C137.836 203.398 137.151 248.32 137.599 251.537C138.069 254.922 130.966 256.833 130.079 252.607C128.669 245.882 125.811 227.497 125.136 216.499C124.503 206.188 124.164 196.961 124.141 191.77Z" fill="#997659"/>
<path fill-rule="evenodd" clip-rule="evenodd" d="M97.8217 192.364C84.7142 192.866 38.0068 188.883 34.6949 189.112C31.288 189.347 29.8801 182.123 34.1552 181.531C40.9576 180.591 59.4853 179.014 70.4965 179.104C79.3531 179.176 87.3994 179.41 92.7758 179.687C95.4426 164.975 100.886 129.463 103.816 122.167L130.92 127.928C128.11 134.925 106.14 185.668 103.023 190.553C101.989 192.313 99.9277 192.75 97.8217 192.364Z" fill="#B28B67"/>
<path fill-rule="evenodd" clip-rule="evenodd" d="M34.9587 182.258C35.4162 181.18 34.9937 179.887 33.8945 179.486C32.9565 179.143 31.9005 178.817 31.2221 178.794C29.7581 178.743 26.9323 179.133 26.9323 179.133C26.8727 180.833 25.8615 209.681 25.8615 209.681C25.8615 209.681 29.7537 211.009 30.1573 208.454C30.5609 205.9 30.8731 204.212 30.8731 204.212L37.4896 190.656C37.7367 190.15 37.5173 189.54 37.0045 189.307L35.253 188.512C35.253 188.512 34.2289 186.099 34.2809 184.614C34.3036 183.968 34.6145 183.068 34.9587 182.258Z" fill="#E4E4E4"/>
<path fill-rule="evenodd" clip-rule="evenodd" d="M103.904 122.185C103.904 122.185 122.91 120.864 137.806 129.391C137.915 147.11 145.497 155.745 141.564 182.04C121.65 187.167 102.663 167.095 82.2663 171.888C79.5657 158.546 93.2352 130.702 103.904 122.185Z" fill="#CAA0FF"/>
<path fill-rule="evenodd" clip-rule="evenodd" d="M166.396 167.172L161.669 146.276L152.598 150.886L160.863 167.457C160.791 174.915 161.28 178.476 162.332 178.139C163.219 177.856 163.423 177.046 163.611 176.3C163.757 175.719 163.894 175.177 164.336 174.952C165.345 174.439 167.726 176.655 169.896 178.854C172.066 181.053 172.287 179.431 172.169 178.434C171.029 174.953 169.105 171.199 166.396 167.172ZM78.707 136.125C81.7901 134.292 103.396 110.947 103.396 110.947L112.866 117.15C112.866 117.15 85.6637 139.788 83.8364 141.067C81.4628 142.729 80.8833 147.007 80.4903 149.908C80.4295 150.357 80.3732 150.772 80.3154 151.141C78.4381 150.846 78.2495 149.606 78.0507 148.299C77.8262 146.823 77.5886 145.26 74.8899 144.877C73.8473 144.729 72.8037 144.677 71.784 144.626C68.262 144.45 65.0265 144.288 63.1092 140.242C62.8052 139.601 63.0134 138.065 64.9518 138.017C69.7811 137.899 77.1998 137.021 78.707 136.125Z" fill="#B28B67"/>
<path fill-rule="evenodd" clip-rule="evenodd" d="M156.214 88.684L160.579 90.5623C156.385 111.828 158.237 134.828 166.135 159.563L143.366 166.744C139.265 136.166 142.033 109.162 156.214 88.684Z" fill="#191847"/>
<path fill-rule="evenodd" clip-rule="evenodd" d="M107.07 126.866L142.052 149.584C142.052 149.584 149.065 112.17 162.465 91.5365L152.932 83.1135C135.989 91.0479 122.996 105.927 107.07 126.866Z" fill="#DDE3E9"/>
<path fill-rule="evenodd" clip-rule="evenodd" d="M152.704 82.976L152.7 82.9631C152.7 82.9631 113.263 90.8926 81.4456 131.512L98.4964 142.585C99.5907 140.596 100.722 138.665 101.884 136.79L124.782 151.661C124.782 151.661 146.654 108.522 154.892 94.9506L157.068 86.0176C157.068 86.0176 154.61 84.264 153.401 83.4185L152.713 82.9712C152.71 82.9728 152.707 82.9744 152.704 82.976Z" fill="#2F3676"/>
<path fill-rule="evenodd" clip-rule="evenodd" d="M101.772 136.972C106.819 128.8 112.445 121.703 118.083 115.635C113.434 124.16 108.393 134.778 108.152 141.114L101.772 136.972Z" fill="black" fill-opacity="0.1"/>
<path fill-rule="evenodd" clip-rule="evenodd" d="M115.973 126.197L130.69 128.291L127.28 133.54L115.973 126.197Z" fill="white" fill-opacity="0.2"/>
</g>
<path fill-rule="evenodd" clip-rule="evenodd" d="M196.989 121.957C194.601 122.127 192.534 121.745 191.802 121.098C189.966 119.476 193.711 111.646 196.899 109.432C200.087 107.217 209.171 110.172 206.517 116.426C205.596 118.597 203.763 120.019 201.685 120.883L198.48 132.938L191.708 129.487L196.989 121.957Z" fill="#B28B67"/>
<path fill-rule="evenodd" clip-rule="evenodd" d="M196.052 103.678C196.443 103.256 197.036 103.026 197.608 103.16C197.746 103.193 197.88 103.245 198.004 103.315C198.049 103.34 198.055 103.359 198.092 103.339C198.12 103.323 198.15 103.266 198.171 103.241C198.235 103.165 198.303 103.093 198.377 103.026C198.627 102.797 198.933 102.638 199.256 102.537C199.86 102.348 200.544 102.353 201.135 102.592C201.458 102.723 201.74 102.93 201.981 103.18C202.106 103.309 202.22 103.449 202.327 103.594C202.359 103.637 202.445 103.814 202.491 103.829C202.543 103.846 202.7 103.776 202.754 103.766C203.421 103.643 204.088 103.8 204.684 104.109C205.356 104.458 205.989 104.823 206.342 105.521C206.417 105.669 206.482 105.822 206.539 105.978C206.569 106.06 206.596 106.143 206.619 106.226C206.634 106.277 206.647 106.328 206.658 106.379C206.677 106.467 206.659 106.483 206.751 106.476C207.106 106.449 207.459 106.532 207.755 106.732C207.931 106.851 208.085 107 208.221 107.163C208.267 107.218 208.353 107.389 208.415 107.422C208.477 107.455 208.659 107.43 208.736 107.439C209.149 107.488 209.539 107.647 209.874 107.892C210.22 108.145 210.513 108.484 210.726 108.854C210.829 109.032 210.907 109.211 210.939 109.415C210.952 109.503 210.96 109.592 210.982 109.678C210.995 109.729 211.038 109.795 211.032 109.848C211.036 109.817 211.54 109.869 211.585 109.879C211.826 109.931 212.036 110.053 212.209 110.227C212.534 110.554 212.723 111.014 212.848 111.45C212.913 111.674 212.951 111.905 212.966 112.137C212.972 112.248 212.974 112.36 212.97 112.471C212.968 112.525 212.954 112.587 212.961 112.64C212.97 112.708 212.993 112.721 213.045 112.775C213.307 113.05 213.502 113.388 213.593 113.757C213.686 114.13 213.669 114.524 213.559 114.891C213.552 114.912 213.512 114.996 213.519 115.012C213.527 115.035 213.595 115.061 213.617 115.076C213.697 115.129 213.773 115.187 213.845 115.248C213.979 115.362 214.1 115.49 214.205 115.631C214.613 116.179 214.745 116.884 214.646 117.551C214.542 118.251 214.189 118.934 213.651 119.398C213.564 119.473 213.471 119.542 213.373 119.601C213.312 119.638 213.301 119.632 213.294 119.699C213.287 119.774 213.3 119.857 213.297 119.932C213.289 120.179 213.247 120.423 213.178 120.659C213.066 121.046 212.91 121.435 212.662 121.757C212.547 121.906 212.411 122.04 212.254 122.146C212.173 122.199 212.088 122.246 211.999 122.283C211.953 122.303 211.906 122.32 211.858 122.335C211.831 122.343 211.799 122.347 211.773 122.359C211.711 122.388 211.723 122.344 211.706 122.426C211.683 122.54 211.694 122.67 211.683 122.786C211.671 122.906 211.654 123.026 211.634 123.145C211.594 123.386 211.541 123.625 211.466 123.858C211.322 124.305 211.087 124.739 210.698 125.018C210.532 125.138 210.34 125.219 210.138 125.256C210.04 125.273 209.939 125.281 209.838 125.278C209.787 125.276 209.73 125.258 209.69 125.288C209.648 125.321 209.634 125.422 209.617 125.474C209.463 125.925 209.268 126.381 208.934 126.729C208.625 127.049 208.202 127.255 207.76 127.309C206.904 127.414 206.056 126.952 205.562 126.267C205.433 126.088 205.326 125.893 205.247 125.688C204.622 125.998 203.866 125.593 203.396 125.174C202.811 124.653 202.508 123.907 202.51 123.13C201.818 123.432 201.007 122.807 200.999 122.092C200.996 121.917 201.031 121.743 201.088 121.578C201.118 121.491 201.167 121.413 201.2 121.328C201.241 121.221 201.223 121.086 201.235 120.967C201.256 120.736 201.31 120.512 201.414 120.303C201.468 120.194 201.536 120.095 201.601 119.993C201.66 119.901 201.679 119.797 201.712 119.693C201.871 119.81 202.106 119.871 202.295 119.904C202.48 119.936 202.697 119.883 202.87 119.822C203.273 119.68 203.618 119.401 203.91 119.098C204.553 118.431 204.937 117.435 204.364 116.598C204.097 116.208 202.989 115.644 202.498 115.52C201.982 115.389 200.937 116.143 200.862 116.225C200.816 116.277 200.787 116.354 200.712 116.366C200.548 116.392 200.427 116.14 200.376 116.02C200.289 115.814 200.267 115.587 200.262 115.366C200.249 114.883 200.29 114.393 200.383 113.92C200.456 113.555 200.566 113.196 200.606 112.825C200.647 112.456 200.603 112.085 200.404 111.763C200.189 111.413 199.881 111.13 199.599 110.835C199.319 110.543 199.058 110.228 198.923 109.841C198.893 109.756 198.866 109.669 198.853 109.58C198.842 109.509 198.856 109.392 198.817 109.331C198.755 109.236 198.56 109.303 198.46 109.312C197.967 109.359 197.488 109.531 197.054 109.763C196.622 109.995 196.241 110.236 195.871 110.551C195.596 110.786 195.326 111.127 194.985 111.26C194.833 111.319 194.079 111.018 193.895 110.804C193.71 110.591 193.574 110.211 193.574 110.017C193.575 109.818 193.644 109.635 193.767 109.479C193.839 109.388 193.928 109.314 194.002 109.225C194.063 109.151 194.121 109.08 194.201 109.024C194.353 108.918 194.538 108.88 194.72 108.918C194.632 108.68 194.588 108.427 194.597 108.173C194.607 107.91 194.654 107.609 194.75 107.363C194.827 107.164 194.957 106.982 195.144 106.872C195.34 106.757 195.59 106.744 195.811 106.722C195.658 106.393 195.563 106.039 195.52 105.679C195.438 104.979 195.557 104.21 196.052 103.678Z" fill="#191847"/>
<path fill-rule="evenodd" clip-rule="evenodd" d="M192.43 156.309L176.886 195.652L166.46 228.912H162.343L178.282 156.309L192.43 156.309Z" fill="#997659"/>
<path fill-rule="evenodd" clip-rule="evenodd" d="M195.56 156.309C195.725 170.134 198.139 188.748 198.525 189.61C198.911 190.471 225.152 211.528 225.152 211.528L222.317 214.562C222.317 214.562 191.354 196.509 189.921 194.101C188.488 191.693 183.824 169.535 180.078 156.309H195.56Z" fill="#B28B67"/>
<path fill-rule="evenodd" clip-rule="evenodd" d="M224.178 212.352C224.706 211.307 225.849 210.566 226.893 211.097C227.137 211.22 227.352 211.348 227.5 211.473C228.156 212.023 229.232 213.298 229.232 213.298C228.593 214.06 217.75 226.982 217.75 226.982C217.75 226.982 215.539 226.035 216.363 224.768C217.186 223.501 217.711 222.646 217.711 222.646L220.019 214.583C220.174 214.041 220.745 213.734 221.282 213.905L221.947 214.116C221.947 214.116 223.336 213.468 223.894 212.803C223.994 212.685 224.089 212.529 224.178 212.352Z" fill="#E4E4E4"/>
<path fill-rule="evenodd" clip-rule="evenodd" d="M165.868 227.521C167.008 227.253 168.311 227.653 168.576 228.794C168.638 229.06 168.677 229.307 168.677 229.5C168.677 230.357 168.392 232 168.392 232C167.398 232 150.53 232 150.53 232C150.53 232 149.833 229.698 151.334 229.515C152.834 229.331 153.826 229.183 153.826 229.183L161.486 225.768C162.001 225.539 162.603 225.78 162.818 226.3L163.084 226.945C163.084 226.945 164.472 227.593 165.341 227.593C165.495 227.593 165.676 227.566 165.868 227.521Z" fill="#E4E4E4"/>
<path fill-rule="evenodd" clip-rule="evenodd" d="M181.979 225.487L162.405 223.362L176.911 156.309H194.443L181.979 225.487Z" fill="#69A1AC"/>
<path fill-rule="evenodd" clip-rule="evenodd" d="M221.104 206.633L208.265 221.83C208.265 221.83 187.98 199.675 184.613 192.918C181.246 186.161 178.559 156.309 178.559 156.309H198.296C198.296 156.309 199.763 182.572 200.274 183.794C200.785 185.016 221.104 206.633 221.104 206.633Z" fill="#89C5CC"/>
<path fill-rule="evenodd" clip-rule="evenodd" d="M160.229 136.085L170.145 143.751L165.454 147.419L158.709 138.946C154.734 137.143 152.966 136.004 153.405 135.53C153.775 135.13 154.255 135.222 154.698 135.306C155.042 135.372 155.363 135.434 155.592 135.255C156.114 134.847 155.528 133.038 154.898 131.345C154.269 129.652 155.184 129.936 155.684 130.244C157.248 131.708 158.764 133.655 160.229 136.085ZM208.216 156.001L214.825 156.321C216.289 168.642 217.297 175.445 217.849 176.73C218.254 177.672 221.46 180.639 223.703 182.356C224.603 183.045 224.174 183.844 223.81 184.043C221.513 185.299 219.928 184.263 218.202 183.135C217.702 182.808 217.191 182.474 216.647 182.186C215.24 181.439 214.591 182.097 213.977 182.718C213.434 183.269 212.919 183.791 211.93 183.285C212.029 183.091 212.146 182.874 212.271 182.641C213.082 181.133 214.277 178.908 213.726 177.305C213.443 176.483 211.606 169.381 208.216 156.001Z" fill="#B28B67"/>
<path fill-rule="evenodd" clip-rule="evenodd" d="M197.287 126.925L194.744 125.806C187.556 129.978 181.831 142.877 177.529 143.701C173.462 144.479 168.7 141.557 163.105 137.819L160.175 141.555C164.252 148.987 174.874 157.055 180.421 155.344C189.29 152.608 195.217 136.416 197.287 126.925Z" fill="#DB2721"/>
<path fill-rule="evenodd" clip-rule="evenodd" d="M200.545 163.206C200.545 163.206 184.563 159.221 177.033 157.344C175.959 157.076 176.548 155.575 176.899 154.831C180.944 146.243 190.369 138.249 193.575 125.388L200.622 126.016C203.982 136.436 203.153 148.027 200.545 163.206Z" fill="#DDE3E9"/>
<path fill-rule="evenodd" clip-rule="evenodd" d="M182.996 165.684L204.16 170.961C205.084 165.827 205.342 160.218 205.17 154.643C207.808 164.484 210.285 171.713 212.601 176.33L217.77 176.593C219.504 156.114 213.934 139.291 201.06 126.125L200.982 126.106C200.982 126.106 200.982 126.106 200.982 126.106L198.374 125.456C198.374 125.456 181.48 154.309 182.996 165.684Z" fill="#FF4133"/>
<path d="M124.329 205.184V198.886L136.925 197.87L137.331 204.778L124.329 205.184Z" fill="#997659"/>
</svg>
